<mxfile host="app.diagrams.net" modified="2023-08-11T05:48:26.804Z" agent="Mozilla/5.0 (Windows NT 10.0; Win64; x64) AppleWebKit/537.36 (KHTML, like Gecko) Chrome/115.0.0.0 Safari/537.36" version="21.3.8" etag="2mLbEDEjg-ZTXWbFa4x5" type="github">
  <diagram name="Page-1" id="mcEiq5qSMleaDKnSQYky">
    <mxGraphModel>
      <root>
        <mxCell id="0" />
        <mxCell id="1" parent="0" />
      </root>
    </mxGraphModel>
  </diagram>
</mxfile>
